<svg viewBox="0 0 512 512" xmlns="http://www.w3.org/2000/svg">
  <defs>
    <linearGradient id="bgGradient" x1="0%" y1="0%" x2="100%" y2="100%">
      <stop offset="0%" style="stop-color:#0F172A;stop-opacity:1" />
      <stop offset="100%" style="stop-color:#1E293B;stop-opacity:1" />
    </linearGradient>
  </defs>

  <!-- Background shape with irregular edges -->
  <path d="M64 0
           C100 0, 412 0, 448 0
           C512 0, 512 64, 512 64
           L512 380
           C512 380, 500 420, 460 440
           C420 460, 400 512, 400 512
           L112 512
           C112 512, 92 460, 52 440
           C12 420, 0 380, 0 380
           L0 132
           C0 132, 12 92, 52 72
           C92 52, 64 0, 64 0 Z"
        fill="url(#bgGradient)" />

  <!-- Very thick light border -->
  <path d="M64 2
           C100 2, 412 2, 448 2
           C510 2, 510 64, 510 64
           L510 380
           C510 380, 498 418, 460 438
           C422 458, 402 510, 402 510
           L112 510
           C112 510, 92 458, 54 438
           C16 418, 2 380, 2 380
           L2 132
           C2 132, 14 94, 52 74
           C90 54, 64 2, 64 2 Z"
        stroke="#E2E8F0"
        stroke-width="8"
        fill="none" />

  <!-- Dynamic background patterns -->
  <path d="M52 72 L460 440" stroke="#1E293B" stroke-width="40" />
  <path d="M0 300 L512 420" stroke="#1E293B" stroke-width="30" />
  <path d="M92 52 L400 512" stroke="#1E293B" stroke-width="20" />

  <!-- Letters KF with increased spacing -->
  <g transform="translate(108, 156)">
    <!-- K -->
    <path d="M 0,0 L 0,200
             M 0,100 L 80,0
             M 0,100 L 80,200"
          stroke="#E2E8F0"
          stroke-width="24"
          stroke-linecap="square"
          fill="none" />

    <!-- F -->
    <path d="M 160,0 L 160,200
             M 160,0 L 240,0
             M 160,100 L 220,100"
          stroke="#E2E8F0"
          stroke-width="24"
          stroke-linecap="square"
          fill="none" />
  </g>

  <!-- Subtle underline -->
  <line x1="176" y1="400" x2="336" y2="400"
        stroke="#475569"
        stroke-width="2" />
</svg>
